<?xml version="1.0" encoding="utf-8"?>
<svg xmlns="http://www.w3.org/2000/svg" viewBox="-251 -1 502 402" width="502" height="402" fill="none" stroke="black" stroke-width="2" style="border:1px none black">
<style>
text { stroke:none ; fill:black ; text-anchor:middle ; dominant-baseline:middle ; font-size:18px }
</style>

<defs>
<marker id="arrow" viewBox="0 0 10 4" refX="10" refY="2" markerUnits="strokeWidth" markerWidth="10" markerHeight="4" orient="auto-start-reverse">
	<path d="M 0 0 L 10 2 L 0 4 z" fill="black" stroke="none" />
	</marker>
</defs>

<g transform="translate( -175, 20 )">
<rect x="-41" y="-1" width="82" height="77" />
<text x="0" y="25">HTML</text>
<text x="0" y="50">page.htm</text>
</g>

<g transform="translate( 0, 20 )">
<rect x="-41" y="-1" width="82" height="77" />
<text x="0" y="25">CSS</text>
<text x="0" y="50">page.css</text>
<text x="-90" y="22">LINK</text>
<line x1="-135" y1="35" x2="-40" y2="35" marker-end="url(#arrow)" />
</g>

<g transform="translate( 0, 125 )">
<rect x="-41" y="-1" width="82" height="77" />
<text x="0" y="25">Script</text>
<text x="0" y="50">page.js</text>
<text x="-90" y="22">SCRIPT</text>
<line x1="-135" y1="35" x2="-40" y2="35" marker-end="url(#arrow)" />
</g>

<g style="display:none">
<g transform="translate( 50, 20 )">
<rect x="-41" y="-1" width="82" height="52" />
<text x="0" y="25">Actors</text>
<line x1="0" y1="100" x2="0" y2="50" marker-end="url(#arrow)" />
</g>

<g transform="translate( 0, 120 )">
<rect x="-91" y="-1" width="182" height="52" />
<text x="0" y="25">BLE MQTT Gateway</text>
<line x1="0" y1="50" x2="0" y2="100" marker-start="url(#arrow)" marker-end="url(#arrow)" />
</g>

<g transform="translate( 0, 220 )">
<rect x="-91" y="-1" width="182" height="52" />
<text x="0" y="25">MQTT Broker</text>
<line x1="0" y1="50" x2="0" y2="100" marker-start="url(#arrow)" marker-end="url(#arrow)" />
</g>

<g transform="translate( 0, 320 )">
<rect x="-91" y="-1" width="182" height="52" />
<text x="0" y="16">Home Automation</text>
<text x="0" y="36">Server</text>
</g>
</g>
</svg>